<?xml version="1.0" encoding="UTF-8"?>
<!DOCTYPE svg PUBLIC "-//W3C//DTD SVG 1.1//EN" "http://www.w3.org/Graphics/SVG/1.1/DTD/svg11.dtd">
<!-- Creator: CorelDRAW X7 -->
<svg xmlns="http://www.w3.org/2000/svg" xml:space="preserve" width="32.6404mm" height="23.5042mm" version="1.1" style="shape-rendering:geometricPrecision; text-rendering:geometricPrecision; image-rendering:optimizeQuality; fill-rule:evenodd; clip-rule:evenodd"
viewBox="0 0 787 567"
 xmlns:xlink="http://www.w3.org/1999/xlink">
 <defs>
  <style type="text/css">
   <![CDATA[
    .fil0 {fill:#FEFEFE;fill-rule:nonzero}
   ]]>
  </style>
 </defs>
 <g id="__x0023_Layer_x0020_1">
  <metadata id="CorelCorpID_0Corel-Layer"/>
  <g id="_1264960696432">
   <polygon class="fil0" points="388,435 63,110 0,173 325,498 "/>
   <polygon class="fil0" points="155,191 155,18 68,105 "/>
   <polygon class="fil0" points="221,89 296,89 259,52 "/>
   <polygon class="fil0" points="491,89 703,89 614,0 581,0 "/>
   <polygon class="fil0" points="300,0 173,0 163,11 163,137 "/>
   <polygon class="fil0" points="394,176 570,0 311,0 264,47 "/>
   <polygon class="fil0" points="585,97 725,236 787,173 711,97 "/>
   <polygon class="fil0" points="633,328 719,242 633,155 "/>
   <polygon class="fil0" points="330,504 394,567 625,336 625,210 "/>
  </g>
 </g>
</svg>
